<mxfile host="app.diagrams.net" modified="2023-07-05T11:06:00.096Z" agent="Mozilla/5.0 (Windows NT 10.0; Win64; x64; rv:109.0) Gecko/20100101 Firefox/114.0" etag="PE_dkDDqbgwYYWQxDxUh" version="21.5.1" type="github">
  <diagram name="Page-1" id="kGMyGou1nUePbA4EINrC">
    <mxGraphModel dx="10929" dy="9974" grid="1" gridSize="10" guides="1" tooltips="1" connect="1" arrows="1" fold="1" page="1" pageScale="1" pageWidth="827" pageHeight="1169" math="0" shadow="0">
      <root>
        <mxCell id="0" />
        <mxCell id="1" parent="0" />
        <mxCell id="mz7fUr0vwj-igbSiduvv-72" style="edgeStyle=none;shape=connector;rounded=0;orthogonalLoop=1;jettySize=auto;html=1;labelBackgroundColor=default;strokeColor=default;fontFamily=Helvetica;fontSize=11;fontColor=default;endArrow=none;endFill=0;entryX=0.017;entryY=-0.2;entryDx=0;entryDy=0;entryPerimeter=0;" parent="1" source="mz7fUr0vwj-igbSiduvv-27" target="mz7fUr0vwj-igbSiduvv-78" edge="1">
          <mxGeometry relative="1" as="geometry" />
        </mxCell>
        <mxCell id="mz7fUr0vwj-igbSiduvv-88" style="edgeStyle=none;shape=connector;rounded=0;orthogonalLoop=1;jettySize=auto;html=1;labelBackgroundColor=default;strokeColor=default;fontFamily=Helvetica;fontSize=11;fontColor=default;endArrow=none;endFill=0;entryX=0;entryY=0.75;entryDx=0;entryDy=0;" parent="1" source="mz7fUr0vwj-igbSiduvv-27" target="mz7fUr0vwj-igbSiduvv-98" edge="1">
          <mxGeometry relative="1" as="geometry">
            <mxPoint x="-4521" y="-6325" as="targetPoint" />
          </mxGeometry>
        </mxCell>
        <mxCell id="mz7fUr0vwj-igbSiduvv-108" style="edgeStyle=none;shape=connector;rounded=0;orthogonalLoop=1;jettySize=auto;html=1;entryX=0;entryY=0.5;entryDx=0;entryDy=0;labelBackgroundColor=default;strokeColor=default;fontFamily=Helvetica;fontSize=11;fontColor=default;endArrow=none;endFill=0;" parent="1" source="mz7fUr0vwj-igbSiduvv-27" target="mz7fUr0vwj-igbSiduvv-107" edge="1">
          <mxGeometry relative="1" as="geometry" />
        </mxCell>
        <mxCell id="mz7fUr0vwj-igbSiduvv-115" style="edgeStyle=none;shape=connector;rounded=0;orthogonalLoop=1;jettySize=auto;html=1;entryX=0;entryY=0.5;entryDx=0;entryDy=0;labelBackgroundColor=default;strokeColor=default;fontFamily=Helvetica;fontSize=11;fontColor=default;endArrow=none;endFill=0;" parent="1" source="mz7fUr0vwj-igbSiduvv-27" target="mz7fUr0vwj-igbSiduvv-123" edge="1">
          <mxGeometry relative="1" as="geometry" />
        </mxCell>
        <mxCell id="mz7fUr0vwj-igbSiduvv-131" style="edgeStyle=none;shape=connector;rounded=0;orthogonalLoop=1;jettySize=auto;html=1;entryX=0;entryY=0.5;entryDx=0;entryDy=0;labelBackgroundColor=default;strokeColor=default;fontFamily=Helvetica;fontSize=11;fontColor=default;endArrow=none;endFill=0;" parent="1" source="mz7fUr0vwj-igbSiduvv-27" target="mz7fUr0vwj-igbSiduvv-126" edge="1">
          <mxGeometry relative="1" as="geometry" />
        </mxCell>
        <mxCell id="mz7fUr0vwj-igbSiduvv-27" value="élève en difficulter" style="shape=umlActor;verticalLabelPosition=bottom;verticalAlign=top;html=1;" parent="1" vertex="1">
          <mxGeometry x="-5391" y="-5965" width="30" height="60" as="geometry" />
        </mxCell>
        <mxCell id="mz7fUr0vwj-igbSiduvv-29" value="&lt;div&gt;Site&lt;/div&gt;" style="shape=umlFrame;whiteSpace=wrap;html=1;pointerEvents=0;width=220;height=40;connectable=0;" parent="1" vertex="1">
          <mxGeometry x="-4991" y="-6960" width="870" height="1480" as="geometry" />
        </mxCell>
        <mxCell id="mz7fUr0vwj-igbSiduvv-73" style="edgeStyle=none;shape=connector;rounded=0;orthogonalLoop=1;jettySize=auto;html=1;entryX=1;entryY=-0.2;entryDx=0;entryDy=0;labelBackgroundColor=default;strokeColor=default;fontFamily=Helvetica;fontSize=11;fontColor=default;endArrow=none;endFill=0;entryPerimeter=0;" parent="1" source="mz7fUr0vwj-igbSiduvv-30" target="mz7fUr0vwj-igbSiduvv-78" edge="1">
          <mxGeometry relative="1" as="geometry" />
        </mxCell>
        <mxCell id="mz7fUr0vwj-igbSiduvv-89" style="edgeStyle=none;shape=connector;rounded=0;orthogonalLoop=1;jettySize=auto;html=1;entryX=1;entryY=0.75;entryDx=0;entryDy=0;labelBackgroundColor=default;strokeColor=default;fontFamily=Helvetica;fontSize=11;fontColor=default;endArrow=none;endFill=0;" parent="1" source="mz7fUr0vwj-igbSiduvv-30" target="mz7fUr0vwj-igbSiduvv-98" edge="1">
          <mxGeometry relative="1" as="geometry">
            <mxPoint x="-4381" y="-6325" as="targetPoint" />
          </mxGeometry>
        </mxCell>
        <mxCell id="mz7fUr0vwj-igbSiduvv-109" style="edgeStyle=none;shape=connector;rounded=0;orthogonalLoop=1;jettySize=auto;html=1;entryX=1;entryY=0.5;entryDx=0;entryDy=0;labelBackgroundColor=default;strokeColor=default;fontFamily=Helvetica;fontSize=11;fontColor=default;endArrow=none;endFill=0;" parent="1" source="mz7fUr0vwj-igbSiduvv-30" target="mz7fUr0vwj-igbSiduvv-107" edge="1">
          <mxGeometry relative="1" as="geometry" />
        </mxCell>
        <mxCell id="mz7fUr0vwj-igbSiduvv-116" style="edgeStyle=none;shape=connector;rounded=0;orthogonalLoop=1;jettySize=auto;html=1;entryX=1;entryY=0.5;entryDx=0;entryDy=0;labelBackgroundColor=default;strokeColor=default;fontFamily=Helvetica;fontSize=11;fontColor=default;endArrow=none;endFill=0;" parent="1" source="mz7fUr0vwj-igbSiduvv-30" target="mz7fUr0vwj-igbSiduvv-124" edge="1">
          <mxGeometry relative="1" as="geometry" />
        </mxCell>
        <mxCell id="mz7fUr0vwj-igbSiduvv-132" style="edgeStyle=none;shape=connector;rounded=0;orthogonalLoop=1;jettySize=auto;html=1;entryX=1;entryY=0.5;entryDx=0;entryDy=0;labelBackgroundColor=default;strokeColor=default;fontFamily=Helvetica;fontSize=11;fontColor=default;endArrow=none;endFill=0;" parent="1" source="mz7fUr0vwj-igbSiduvv-30" target="mz7fUr0vwj-igbSiduvv-126" edge="1">
          <mxGeometry relative="1" as="geometry" />
        </mxCell>
        <mxCell id="mz7fUr0vwj-igbSiduvv-30" value="Tuteur bénévole" style="shape=umlActor;verticalLabelPosition=bottom;verticalAlign=top;html=1;" parent="1" vertex="1">
          <mxGeometry x="-3751" y="-5965" width="30" height="60" as="geometry" />
        </mxCell>
        <mxCell id="mz7fUr0vwj-igbSiduvv-71" value="N&#39;as pas de compte" style="ellipse;whiteSpace=wrap;html=1;fontFamily=Helvetica;fontSize=11;fontColor=default;" parent="1" vertex="1">
          <mxGeometry x="-4891" y="-6840" width="140" height="70" as="geometry" />
        </mxCell>
        <mxCell id="mz7fUr0vwj-igbSiduvv-74" value="" style="shape=ellipse;container=1;horizontal=1;horizontalStack=0;resizeParent=1;resizeParentMax=0;resizeLast=0;html=1;dashed=0;collapsible=0;fontFamily=Helvetica;fontSize=11;fontColor=default;" parent="1" vertex="1">
          <mxGeometry x="-4781" y="-6750" width="270" height="190" as="geometry" />
        </mxCell>
        <mxCell id="mz7fUr0vwj-igbSiduvv-75" value="&lt;div style=&quot;font-size: 16px;&quot;&gt;Se connecter au site&lt;br style=&quot;font-size: 16px;&quot;&gt;&lt;/div&gt;" style="html=1;strokeColor=none;fillColor=none;align=center;verticalAlign=middle;rotatable=0;whiteSpace=wrap;fontFamily=Helvetica;fontSize=16;fontColor=default;" parent="mz7fUr0vwj-igbSiduvv-74" vertex="1">
          <mxGeometry y="10" width="270" height="47.5" as="geometry" />
        </mxCell>
        <mxCell id="mz7fUr0vwj-igbSiduvv-76" value="" style="line;strokeWidth=1;fillColor=none;rotatable=0;labelPosition=right;points=[];portConstraint=eastwest;dashed=0;resizeWidth=1;fontFamily=Helvetica;fontSize=11;fontColor=default;" parent="mz7fUr0vwj-igbSiduvv-74" vertex="1">
          <mxGeometry x="13.5" y="47.5" width="243.00000000000003" height="15.833333333333332" as="geometry" />
        </mxCell>
        <mxCell id="mz7fUr0vwj-igbSiduvv-77" value="extension points" style="text;html=1;align=center;verticalAlign=middle;rotatable=0;fillColor=none;strokeColor=none;whiteSpace=wrap;fontSize=11;fontFamily=Helvetica;fontColor=default;" parent="mz7fUr0vwj-igbSiduvv-74" vertex="1">
          <mxGeometry y="63.33333333333333" width="270" height="47.5" as="geometry" />
        </mxCell>
        <mxCell id="mz7fUr0vwj-igbSiduvv-78" value="&lt;div&gt;N&#39;as pas de compte&lt;/div&gt;&lt;div&gt;A oublier sont mot de passe&lt;br&gt;&lt;/div&gt;" style="text;html=1;align=left;verticalAlign=middle;rotatable=0;spacingLeft=25;fillColor=none;strokeColor=none;whiteSpace=wrap;fontSize=11;fontFamily=Helvetica;fontColor=default;" parent="mz7fUr0vwj-igbSiduvv-74" vertex="1">
          <mxGeometry y="110.83333333333333" width="270" height="47.5" as="geometry" />
        </mxCell>
        <mxCell id="mz7fUr0vwj-igbSiduvv-82" value="&amp;lt;&amp;lt;extend&amp;gt;&amp;gt;" style="html=1;verticalAlign=bottom;labelBackgroundColor=default;endArrow=open;endFill=0;dashed=1;rounded=0;strokeColor=default;fontFamily=Helvetica;fontSize=11;fontColor=default;shape=connector;exitX=0.5;exitY=1;exitDx=0;exitDy=0;" parent="1" source="mz7fUr0vwj-igbSiduvv-71" edge="1">
          <mxGeometry x="0.0127" width="160" relative="1" as="geometry">
            <mxPoint x="-4951" y="-6550" as="sourcePoint" />
            <mxPoint x="-4646" y="-6750" as="targetPoint" />
            <mxPoint as="offset" />
          </mxGeometry>
        </mxCell>
        <mxCell id="mz7fUr0vwj-igbSiduvv-83" value="&amp;lt;&amp;lt;include&amp;gt;&amp;gt;" style="html=1;verticalAlign=bottom;labelBackgroundColor=default;endArrow=open;endFill=0;dashed=1;rounded=0;strokeColor=default;fontFamily=Helvetica;fontSize=11;fontColor=default;shape=connector;exitX=0.5;exitY=0;exitDx=0;exitDy=0;entryX=0;entryY=0.5;entryDx=0;entryDy=0;" parent="1" source="mz7fUr0vwj-igbSiduvv-71" target="mz7fUr0vwj-igbSiduvv-84" edge="1">
          <mxGeometry width="160" relative="1" as="geometry">
            <mxPoint x="-4691" y="-6830" as="sourcePoint" />
            <mxPoint x="-4631" y="-6950" as="targetPoint" />
          </mxGeometry>
        </mxCell>
        <mxCell id="mz7fUr0vwj-igbSiduvv-84" value="Créer un compte" style="ellipse;whiteSpace=wrap;html=1;fontFamily=Helvetica;fontSize=11;fontColor=default;" parent="1" vertex="1">
          <mxGeometry x="-4716" y="-6910" width="140" height="70" as="geometry" />
        </mxCell>
        <mxCell id="mz7fUr0vwj-igbSiduvv-85" value="A oublier sont mot de passe" style="ellipse;whiteSpace=wrap;html=1;fontFamily=Helvetica;fontSize=11;fontColor=default;" parent="1" vertex="1">
          <mxGeometry x="-4541" y="-6850" width="140" height="70" as="geometry" />
        </mxCell>
        <mxCell id="mz7fUr0vwj-igbSiduvv-86" value="&amp;lt;&amp;lt;extend&amp;gt;&amp;gt;" style="html=1;verticalAlign=bottom;labelBackgroundColor=default;endArrow=open;endFill=0;dashed=1;rounded=0;strokeColor=default;fontFamily=Helvetica;fontSize=11;fontColor=default;shape=connector;entryX=0.5;entryY=0;entryDx=0;entryDy=0;exitX=0.5;exitY=1;exitDx=0;exitDy=0;" parent="1" source="mz7fUr0vwj-igbSiduvv-85" target="mz7fUr0vwj-igbSiduvv-74" edge="1">
          <mxGeometry width="160" relative="1" as="geometry">
            <mxPoint x="-4531" y="-6790" as="sourcePoint" />
            <mxPoint x="-4500" y="-6726" as="targetPoint" />
          </mxGeometry>
        </mxCell>
        <mxCell id="mz7fUr0vwj-igbSiduvv-90" value="N&#39;as pas la personne en contact" style="ellipse;whiteSpace=wrap;html=1;fontFamily=Helvetica;fontSize=11;fontColor=default;" parent="1" vertex="1">
          <mxGeometry x="-4371" y="-6320" width="140" height="70" as="geometry" />
        </mxCell>
        <mxCell id="mz7fUr0vwj-igbSiduvv-91" value="Voir l&#39;historique des message" style="ellipse;whiteSpace=wrap;html=1;fontFamily=Helvetica;fontSize=11;fontColor=default;" parent="1" vertex="1">
          <mxGeometry x="-4761" y="-6340" width="140" height="70" as="geometry" />
        </mxCell>
        <mxCell id="mz7fUr0vwj-igbSiduvv-92" value="&amp;lt;&amp;lt;include&amp;gt;&amp;gt;" style="html=1;verticalAlign=bottom;labelBackgroundColor=default;endArrow=open;endFill=0;dashed=1;rounded=0;strokeColor=default;fontFamily=Helvetica;fontSize=11;fontColor=default;shape=connector;exitX=0.5;exitY=1;exitDx=0;exitDy=0;entryX=0.5;entryY=0;entryDx=0;entryDy=0;" parent="1" source="mz7fUr0vwj-igbSiduvv-95" target="mz7fUr0vwj-igbSiduvv-91" edge="1">
          <mxGeometry width="160" relative="1" as="geometry">
            <mxPoint x="-4501" y="-6410" as="sourcePoint" />
            <mxPoint x="-4471" y="-6320" as="targetPoint" />
          </mxGeometry>
        </mxCell>
        <mxCell id="mz7fUr0vwj-igbSiduvv-93" value="&amp;lt;&amp;lt;extend&amp;gt;&amp;gt;" style="html=1;verticalAlign=bottom;labelBackgroundColor=default;endArrow=open;endFill=0;dashed=1;rounded=0;strokeColor=default;fontFamily=Helvetica;fontSize=11;fontColor=default;shape=connector;exitX=0.5;exitY=0;exitDx=0;exitDy=0;entryX=0.546;entryY=0.994;entryDx=0;entryDy=0;entryPerimeter=0;" parent="1" source="mz7fUr0vwj-igbSiduvv-90" target="mz7fUr0vwj-igbSiduvv-95" edge="1">
          <mxGeometry width="160" relative="1" as="geometry">
            <mxPoint x="-4451" y="-6350" as="sourcePoint" />
            <mxPoint x="-4501" y="-6410" as="targetPoint" />
          </mxGeometry>
        </mxCell>
        <mxCell id="mz7fUr0vwj-igbSiduvv-94" value="Ajouter un contact" style="ellipse;whiteSpace=wrap;html=1;fontFamily=Helvetica;fontSize=11;fontColor=default;" parent="1" vertex="1">
          <mxGeometry x="-4501" y="-6230" width="140" height="70" as="geometry" />
        </mxCell>
        <mxCell id="mz7fUr0vwj-igbSiduvv-95" value="" style="shape=ellipse;container=1;horizontal=1;horizontalStack=0;resizeParent=1;resizeParentMax=0;resizeLast=0;html=1;dashed=0;collapsible=0;fontFamily=Helvetica;fontSize=11;fontColor=default;" parent="1" vertex="1">
          <mxGeometry x="-4611" y="-6530" width="210" height="170" as="geometry" />
        </mxCell>
        <mxCell id="mz7fUr0vwj-igbSiduvv-96" value="Communiquer via le chat" style="html=1;strokeColor=none;fillColor=none;align=center;verticalAlign=middle;rotatable=0;whiteSpace=wrap;fontFamily=Helvetica;fontSize=11;fontColor=default;" parent="mz7fUr0vwj-igbSiduvv-95" vertex="1">
          <mxGeometry width="210" height="42.5" as="geometry" />
        </mxCell>
        <mxCell id="mz7fUr0vwj-igbSiduvv-97" value="" style="line;strokeWidth=1;fillColor=none;rotatable=0;labelPosition=right;points=[];portConstraint=eastwest;dashed=0;resizeWidth=1;fontFamily=Helvetica;fontSize=11;fontColor=default;" parent="mz7fUr0vwj-igbSiduvv-95" vertex="1">
          <mxGeometry x="10.5" y="42.5" width="189" height="14.166666666666668" as="geometry" />
        </mxCell>
        <mxCell id="mz7fUr0vwj-igbSiduvv-98" value="extension points" style="text;html=1;align=center;verticalAlign=middle;rotatable=0;fillColor=none;strokeColor=none;whiteSpace=wrap;fontSize=11;fontFamily=Helvetica;fontColor=default;" parent="mz7fUr0vwj-igbSiduvv-95" vertex="1">
          <mxGeometry y="56.66666666666667" width="210" height="42.5" as="geometry" />
        </mxCell>
        <mxCell id="mz7fUr0vwj-igbSiduvv-99" value="&lt;div&gt;N&#39;as pas la personne en contact&lt;/div&gt;&lt;div&gt;Décide d&#39;un rendez-vous&lt;br&gt;&lt;/div&gt;" style="text;html=1;align=left;verticalAlign=middle;rotatable=0;spacingLeft=25;fillColor=none;strokeColor=none;whiteSpace=wrap;fontSize=11;fontFamily=Helvetica;fontColor=default;" parent="mz7fUr0vwj-igbSiduvv-95" vertex="1">
          <mxGeometry y="99.16666666666667" width="210" height="42.5" as="geometry" />
        </mxCell>
        <mxCell id="mz7fUr0vwj-igbSiduvv-100" value="&amp;lt;&amp;lt;include&amp;gt;&amp;gt;" style="html=1;verticalAlign=bottom;labelBackgroundColor=default;endArrow=open;endFill=0;dashed=1;rounded=0;strokeColor=default;fontFamily=Helvetica;fontSize=11;fontColor=default;shape=connector;exitX=0.5;exitY=1;exitDx=0;exitDy=0;entryX=0.5;entryY=0;entryDx=0;entryDy=0;" parent="1" source="mz7fUr0vwj-igbSiduvv-90" target="mz7fUr0vwj-igbSiduvv-94" edge="1">
          <mxGeometry width="160" relative="1" as="geometry">
            <mxPoint x="-4356" y="-6195" as="sourcePoint" />
            <mxPoint x="-4461" y="-6105" as="targetPoint" />
          </mxGeometry>
        </mxCell>
        <mxCell id="mz7fUr0vwj-igbSiduvv-101" value="&amp;lt;&amp;lt;include&amp;gt;&amp;gt;" style="html=1;verticalAlign=bottom;labelBackgroundColor=default;endArrow=open;endFill=0;dashed=1;rounded=0;strokeColor=default;fontFamily=Helvetica;fontSize=11;fontColor=default;shape=connector;exitX=0.5;exitY=1;exitDx=0;exitDy=0;entryX=0.5;entryY=0;entryDx=0;entryDy=0;" parent="1" source="mz7fUr0vwj-igbSiduvv-95" target="mz7fUr0vwj-igbSiduvv-94" edge="1">
          <mxGeometry width="160" relative="1" as="geometry">
            <mxPoint x="-4271" y="-6240" as="sourcePoint" />
            <mxPoint x="-4461" y="-6250" as="targetPoint" />
          </mxGeometry>
        </mxCell>
        <mxCell id="mz7fUr0vwj-igbSiduvv-102" value="Supprimer un contact" style="ellipse;whiteSpace=wrap;html=1;fontFamily=Helvetica;fontSize=11;fontColor=default;" parent="1" vertex="1">
          <mxGeometry x="-4651" y="-6260" width="140" height="70" as="geometry" />
        </mxCell>
        <mxCell id="mz7fUr0vwj-igbSiduvv-103" value="&amp;lt;&amp;lt;include&amp;gt;&amp;gt;" style="html=1;verticalAlign=bottom;labelBackgroundColor=default;endArrow=open;endFill=0;dashed=1;rounded=0;strokeColor=default;fontFamily=Helvetica;fontSize=11;fontColor=default;shape=connector;exitX=0.5;exitY=1;exitDx=0;exitDy=0;entryX=0.5;entryY=0;entryDx=0;entryDy=0;" parent="1" source="mz7fUr0vwj-igbSiduvv-95" target="mz7fUr0vwj-igbSiduvv-102" edge="1">
          <mxGeometry width="160" relative="1" as="geometry">
            <mxPoint x="-4271" y="-6240" as="sourcePoint" />
            <mxPoint x="-4461" y="-6250" as="targetPoint" />
          </mxGeometry>
        </mxCell>
        <mxCell id="mz7fUr0vwj-igbSiduvv-107" value="Calendrier" style="ellipse;whiteSpace=wrap;html=1;fontFamily=Helvetica;fontSize=16;fontColor=default;" parent="1" vertex="1">
          <mxGeometry x="-4721" y="-6160" width="210" height="130" as="geometry" />
        </mxCell>
        <mxCell id="mz7fUr0vwj-igbSiduvv-110" value="&lt;div&gt;Création d&#39;evenement&lt;/div&gt;" style="ellipse;whiteSpace=wrap;html=1;fontFamily=Helvetica;fontSize=11;fontColor=default;" parent="1" vertex="1">
          <mxGeometry x="-4861" y="-6020" width="140" height="70" as="geometry" />
        </mxCell>
        <mxCell id="mz7fUr0vwj-igbSiduvv-111" value="&amp;lt;&amp;lt;include&amp;gt;&amp;gt;" style="html=1;verticalAlign=bottom;labelBackgroundColor=default;endArrow=open;endFill=0;dashed=1;rounded=0;strokeColor=default;fontFamily=Helvetica;fontSize=11;fontColor=default;shape=connector;exitX=0.029;exitY=0.692;exitDx=0;exitDy=0;entryX=0.5;entryY=0;entryDx=0;entryDy=0;exitPerimeter=0;" parent="1" source="mz7fUr0vwj-igbSiduvv-107" target="mz7fUr0vwj-igbSiduvv-110" edge="1">
          <mxGeometry width="160" relative="1" as="geometry">
            <mxPoint x="-4956" y="-5816" as="sourcePoint" />
            <mxPoint x="-4941" y="-5770" as="targetPoint" />
            <mxPoint as="offset" />
          </mxGeometry>
        </mxCell>
        <mxCell id="mz7fUr0vwj-igbSiduvv-114" value="Gestion des tâches" style="ellipse;whiteSpace=wrap;html=1;fontFamily=Helvetica;fontSize=16;fontColor=default;" parent="1" vertex="1">
          <mxGeometry x="-4531" y="-6040" width="210" height="130" as="geometry" />
        </mxCell>
        <mxCell id="mz7fUr0vwj-igbSiduvv-122" value="&amp;lt;&amp;lt;include&amp;gt;&amp;gt;" style="html=1;verticalAlign=bottom;labelBackgroundColor=default;endArrow=open;endFill=0;dashed=1;rounded=0;strokeColor=default;fontFamily=Helvetica;fontSize=11;fontColor=default;shape=connector;entryX=0.5;entryY=0;entryDx=0;entryDy=0;exitX=0.5;exitY=1;exitDx=0;exitDy=0;" parent="1" source="mz7fUr0vwj-igbSiduvv-114" target="mz7fUr0vwj-igbSiduvv-124" edge="1">
          <mxGeometry width="160" relative="1" as="geometry">
            <mxPoint x="-4536" y="-5710" as="sourcePoint" />
            <mxPoint x="-4141.000000000001" y="-5790" as="targetPoint" />
          </mxGeometry>
        </mxCell>
        <mxCell id="mz7fUr0vwj-igbSiduvv-123" value="Ajouté des tâche a soit même" style="ellipse;whiteSpace=wrap;html=1;fontFamily=Helvetica;fontSize=11;fontColor=default;" parent="1" vertex="1">
          <mxGeometry x="-4621" y="-5870" width="140" height="70" as="geometry" />
        </mxCell>
        <mxCell id="mz7fUr0vwj-igbSiduvv-124" value="Ajouté des tâche au élève suivit" style="ellipse;whiteSpace=wrap;html=1;fontFamily=Helvetica;fontSize=11;fontColor=default;" parent="1" vertex="1">
          <mxGeometry x="-4391" y="-5870" width="140" height="70" as="geometry" />
        </mxCell>
        <mxCell id="mz7fUr0vwj-igbSiduvv-125" value="&amp;lt;&amp;lt;include&amp;gt;&amp;gt;" style="html=1;verticalAlign=bottom;labelBackgroundColor=default;endArrow=open;endFill=0;dashed=1;rounded=0;strokeColor=default;fontFamily=Helvetica;fontSize=11;fontColor=default;shape=connector;entryX=0.5;entryY=0;entryDx=0;entryDy=0;exitX=0.5;exitY=1;exitDx=0;exitDy=0;" parent="1" source="mz7fUr0vwj-igbSiduvv-114" target="mz7fUr0vwj-igbSiduvv-123" edge="1">
          <mxGeometry width="160" relative="1" as="geometry">
            <mxPoint x="-4506" y="-5745" as="sourcePoint" />
            <mxPoint x="-4336" y="-5665" as="targetPoint" />
          </mxGeometry>
        </mxCell>
        <mxCell id="mz7fUr0vwj-igbSiduvv-126" value="Tableau de bord" style="ellipse;whiteSpace=wrap;html=1;fontFamily=Helvetica;fontSize=16;fontColor=default;" parent="1" vertex="1">
          <mxGeometry x="-4706" y="-5770" width="210" height="130" as="geometry" />
        </mxCell>
        <mxCell id="mz7fUr0vwj-igbSiduvv-133" value="To-do liste" style="ellipse;whiteSpace=wrap;html=1;fontFamily=Helvetica;fontSize=11;fontColor=default;" parent="1" vertex="1">
          <mxGeometry x="-4851" y="-5620" width="140" height="70" as="geometry" />
        </mxCell>
        <mxCell id="mz7fUr0vwj-igbSiduvv-134" value="&amp;lt;&amp;lt;include&amp;gt;&amp;gt;" style="html=1;verticalAlign=bottom;labelBackgroundColor=default;endArrow=open;endFill=0;dashed=1;rounded=0;strokeColor=default;fontFamily=Helvetica;fontSize=11;fontColor=default;shape=connector;entryX=0.5;entryY=0;entryDx=0;entryDy=0;exitX=0.5;exitY=1;exitDx=0;exitDy=0;" parent="1" source="mz7fUr0vwj-igbSiduvv-126" target="mz7fUr0vwj-igbSiduvv-133" edge="1">
          <mxGeometry width="160" relative="1" as="geometry">
            <mxPoint x="-4801" y="-5630" as="sourcePoint" />
            <mxPoint x="-4811" y="-5510" as="targetPoint" />
          </mxGeometry>
        </mxCell>
        <mxCell id="mz7fUr0vwj-igbSiduvv-135" value="Prochain evenement" style="ellipse;whiteSpace=wrap;html=1;fontFamily=Helvetica;fontSize=11;fontColor=default;" parent="1" vertex="1">
          <mxGeometry x="-4671" y="-5590" width="140" height="70" as="geometry" />
        </mxCell>
        <mxCell id="mz7fUr0vwj-igbSiduvv-136" value="&amp;lt;&amp;lt;include&amp;gt;&amp;gt;" style="html=1;verticalAlign=bottom;labelBackgroundColor=default;endArrow=open;endFill=0;dashed=1;rounded=0;strokeColor=default;fontFamily=Helvetica;fontSize=11;fontColor=default;shape=connector;entryX=0.5;entryY=0;entryDx=0;entryDy=0;exitX=0.5;exitY=1;exitDx=0;exitDy=0;" parent="1" source="mz7fUr0vwj-igbSiduvv-126" target="mz7fUr0vwj-igbSiduvv-135" edge="1">
          <mxGeometry width="160" relative="1" as="geometry">
            <mxPoint x="-4666" y="-5600" as="sourcePoint" />
            <mxPoint x="-4676" y="-5480" as="targetPoint" />
          </mxGeometry>
        </mxCell>
        <mxCell id="mz7fUr0vwj-igbSiduvv-137" value="Message non lus" style="ellipse;whiteSpace=wrap;html=1;fontFamily=Helvetica;fontSize=11;fontColor=default;" parent="1" vertex="1">
          <mxGeometry x="-4491" y="-5620" width="140" height="70" as="geometry" />
        </mxCell>
        <mxCell id="mz7fUr0vwj-igbSiduvv-138" value="&amp;lt;&amp;lt;include&amp;gt;&amp;gt;" style="html=1;verticalAlign=bottom;labelBackgroundColor=default;endArrow=open;endFill=0;dashed=1;rounded=0;strokeColor=default;fontFamily=Helvetica;fontSize=11;fontColor=default;shape=connector;entryX=0.5;entryY=0;entryDx=0;entryDy=0;exitX=0.5;exitY=1;exitDx=0;exitDy=0;" parent="1" source="mz7fUr0vwj-igbSiduvv-126" target="mz7fUr0vwj-igbSiduvv-137" edge="1">
          <mxGeometry width="160" relative="1" as="geometry">
            <mxPoint x="-4456" y="-5590" as="sourcePoint" />
            <mxPoint x="-4466" y="-5470" as="targetPoint" />
          </mxGeometry>
        </mxCell>
      </root>
    </mxGraphModel>
  </diagram>
</mxfile>
